# xmcd
#
# Track frame offsets:
#   150
#   11169
#   22853
#   34333
#   46422
#   62547
#   79112
#   90844
#   103994
#   119669
#   130613
#   147811
#   162043
#   175505
#   190837
#   212184
#   223841
#   236035
#   245175
#
# Disc length: 3551 seconds
#
# Revision: 0
# Processed by: cddbd v1.4PL0 Copyright (c) Steve Scherf et al.
# Submitted via: uFREEDB 1.6.0
#
DISCID=070ddd13
DTITLE=Varios Artistas - Venezolanisimas
DYEAR=2000
DGENRE=Blues
TTITLE0=Alma llanera
TTITLE1=Aquella noche
TTITLE2=Brisas del Torbes
TTITLE3=El adios
TTITLE4=Brisas del Zulia
TTITLE5=Campesina
TTITLE6=La potranca
TTITLE7=Madrugada llanera
TTITLE8=Moliendo cafe
TTITLE9=Mujer
TTITLE10=El gallo de Pascualita
TTITLE11=Noches larenses
TTITLE12=Petronila
TTITLE13=Pasillaneando
TTITLE14=Pajaro amarillo
TTITLE15=Polo Margariteño
TTITLE16=Rosa Angelina
TTITLE17=Toy contento
TTITLE18=La cachua
EXTD=
EXTT0=
EXTT1=
EXTT2=
EXTT3=
EXTT4=
EXTT5=
EXTT6=
EXTT7=
EXTT8=
EXTT9=
EXTT10=
EXTT11=
EXTT12=
EXTT13=
EXTT14=
EXTT15=
EXTT16=
EXTT17=
EXTT18=
PLAYORDER=
